<?xml version="1.0" encoding="UTF-8" standalone="no"?>
<!DOCTYPE svg PUBLIC "-//W3C//DTD SVG 1.0//EN" "http://www.w3.org/TR/2001/PR-SVG-20010719/DTD/svg10.dtd">
<svg width="22cm" height="14cm" viewBox="335 497 428 262" xmlns="http://www.w3.org/2000/svg" xmlns:xlink="http://www.w3.org/1999/xlink">
  <defs/>
  <g id="Arrière-plan">
    <g>
      <path style="fill: #00b4ff; fill-opacity: 1; stroke: none" fill-rule="evenodd" d="M 570.504 528.183 L 570.752,528.43 L 569.655,530.044 L 569.655,530.663 L 571.111,531.535 L 571.606,531.411 L 572.585,529.42 L 572.95,529.668 L 576.369,522.841 L 576.369,532.777 L 577.1,532.777 L 572.95,546.937 L 573.563,547.438 L 571.483,547.809 L 570.139,548.804 L 570.139,549.918 L 576.493,549.918 L 576.611,548.928 L 576.493,548.18 L 577.224,548.057 L 580.767,537.001 L 584.31,548.057 L 585.041,548.18 L 584.917,549.052 L 585.165,549.918 L 591.384,549.918 L 591.384,548.804 L 590.046,547.809 L 587.965,547.438 L 588.46,546.937 L 584.428,532.777 L 585.165,532.777 L 585.165,522.841 L 588.46,529.797 L 588.825,529.42 L 589.798,531.411 L 590.411,531.535 L 591.879,530.663 L 591.879,530.044 L 590.777,528.43 L 591.024,528.183 L 585.772,517.622 L 582.718,517.622 L 581.74,516.627 L 579.423,516.627 L 578.568,517.622 L 575.762,517.622 L 570.504,528.183z"/>
      <path style="fill: #00b4ff; fill-opacity: 1; stroke: none" fill-rule="evenodd" d="M 570.628 528.301 L 570.875,528.554 L 569.773,530.168 L 569.773,530.792 L 571.241,531.658 L 571.73,531.535 L 572.703,529.544 L 573.068,529.797 L 576.493,522.964 L 576.493,532.901 L 577.224,532.901 L 573.068,547.067 L 573.681,547.562 L 571.606,547.938 L 570.262,548.928 L 570.262,550.047 L 576.611,550.047 L 576.735,549.052 L 576.611,548.304 L 577.348,548.18 L 580.891,537.13 L 584.428,548.18 L 585.165,548.304 L 585.041,549.176 L 585.283,550.047 L 591.513,550.047 L 591.513,548.928 L 590.169,547.938 L 588.094,547.562 L 588.578,547.067 L 584.552,532.901 L 585.283,532.901 L 585.283,522.964 L 588.578,529.921 L 588.944,529.544 L 589.928,531.535 L 590.535,531.658 L 591.997,530.792 L 591.997,530.168 L 590.901,528.554 L 591.142,528.301 L 585.896,517.74 L 582.842,517.74 L 581.864,516.756 L 579.541,516.756 L 578.692,517.74 L 575.875,517.74 L 570.628,528.301z"/>
      <path style="fill: none; stroke-opacity: 1; stroke-width: 0.02; stroke: #aae6ff" d="M 570.628 528.301 L 570.875,528.554 L 569.773,530.168 L 569.773,530.792 L 571.241,531.658 L 571.73,531.535 L 572.703,529.544 L 573.068,529.797 L 576.493,522.964 L 576.493,532.901 L 577.224,532.901 L 573.068,547.067 L 573.681,547.562 L 571.606,547.938 L 570.262,548.928 L 570.262,550.047 L 576.611,550.047 L 576.735,549.052 L 576.611,548.304 L 577.348,548.18 L 580.891,537.13 L 584.428,548.18 L 585.165,548.304 L 585.041,549.176 L 585.283,550.047 L 591.513,550.047 L 591.513,548.928 L 590.169,547.938 L 588.094,547.562 L 588.578,547.067 L 584.552,532.901 L 585.283,532.901 L 585.283,522.964 L 588.578,529.921 L 588.944,529.544 L 589.928,531.535 L 590.535,531.658 L 591.997,530.792 L 591.997,530.168 L 590.901,528.554 L 591.142,528.301 L 585.896,517.74 L 582.842,517.74 L 581.864,516.756 L 579.541,516.756 L 578.692,517.74 L 575.875,517.74 L 570.628,528.301"/>
      <path style="fill: #00b4ff; fill-opacity: 1; stroke: none" fill-rule="evenodd" d="M 581.374 510.047 L 580.036,510.047 L 579.423,510.165 L 578.444,511.037 L 578.321,511.909 L 578.321,513.022 L 578.203,513.523 L 578.203,514.017 L 578.81,516.25 L 579.423,516.874 L 580.767,517.122 L 581.987,516.874 L 582.595,516.25 L 583.084,514.76 L 583.331,514.017 L 583.331,513.523 L 583.084,513.022 L 583.084,511.909 L 582.966,511.037 L 581.987,510.165 L 581.374,510.047z"/>
      <path style="fill: #00b4ff; fill-opacity: 1; stroke: none" fill-rule="evenodd" d="M 581.498 510.165 L 580.154,510.165 L 579.541,510.289 L 578.568,511.155 L 578.444,512.027 L 578.444,513.146 L 578.321,513.641 L 578.321,514.141 L 578.934,516.374 L 579.541,517.004 L 580.891,517.251 L 582.111,517.004 L 582.718,516.374 L 583.208,514.883 L 583.455,514.141 L 583.455,513.641 L 583.208,513.146 L 583.208,512.027 L 583.084,511.155 L 582.111,510.289 L 581.498,510.165z"/>
      <path style="fill: none; stroke-opacity: 1; stroke-width: 0.02; stroke: #aae6ff" d="M 581.498 510.165 L 580.154,510.165 L 579.541,510.289 L 578.568,511.155 L 578.444,512.027 L 578.444,513.146 L 578.321,513.641 L 578.321,514.141 L 578.934,516.374 L 579.541,517.004 L 580.891,517.251 L 582.111,517.004 L 582.718,516.374 L 583.208,514.883 L 583.455,514.141 L 583.455,513.641 L 583.208,513.146 L 583.208,512.027 L 583.084,511.155 L 582.111,510.289 L 581.498,510.165"/>
    </g>
    <g>
      <path style="fill: #cf0e30; fill-opacity: 1; stroke: none" fill-rule="evenodd" d="M 521.88 736.932 L 522.127,737.179 L 521.036,738.793 L 521.036,739.412 L 522.499,740.283 L 522.988,740.16 L 523.966,738.169 L 524.332,738.416 L 527.751,731.59 L 527.751,741.526 L 528.482,741.526 L 524.332,755.686 L 524.95,756.187 L 522.864,756.558 L 521.52,757.553 L 521.52,758.667 L 527.875,758.667 L 527.993,757.677 L 527.875,756.929 L 528.606,756.805 L 532.143,745.75 L 535.691,756.805 L 536.422,756.929 L 536.299,757.801 L 536.546,758.667 L 542.771,758.667 L 542.771,757.553 L 541.422,756.558 L 539.347,756.187 L 539.841,755.686 L 535.809,741.526 L 536.546,741.526 L 536.546,731.59 L 539.841,738.546 L 540.207,738.169 L 541.185,740.16 L 541.798,740.283 L 543.261,739.412 L 543.261,738.793 L 542.158,737.179 L 542.406,736.932 L 537.153,726.371 L 534.105,726.371 L 533.121,725.376 L 530.804,725.376 L 529.95,726.371 L 527.144,726.371 L 521.88,736.932z"/>
      <path style="fill: #cf0e30; fill-opacity: 1; stroke: none" fill-rule="evenodd" d="M 522.015 737.05 L 522.257,737.303 L 521.16,738.917 L 521.16,739.541 L 522.617,740.407 L 523.106,740.283 L 524.084,738.293 L 524.456,738.546 L 527.875,731.713 L 527.875,741.65 L 528.606,741.65 L 524.456,755.816 L 525.063,756.31 L 522.988,756.687 L 521.644,757.677 L 521.644,758.796 L 527.993,758.796 L 528.116,757.801 L 527.993,757.053 L 528.729,756.929 L 532.272,745.879 L 535.809,756.929 L 536.546,757.053 L 536.422,757.924 L 536.664,758.796 L 542.895,758.796 L 542.895,757.677 L 541.551,756.687 L 539.476,756.31 L 539.965,755.816 L 535.939,741.65 L 536.664,741.65 L 536.664,731.713 L 539.965,738.67 L 540.331,738.293 L 541.309,740.283 L 541.911,740.407 L 543.384,739.541 L 543.384,738.917 L 542.282,737.303 L 542.529,737.05 L 537.283,726.489 L 534.218,726.489 L 533.245,725.505 L 530.928,725.505 L 530.068,726.489 L 527.256,726.489 L 522.015,737.05z"/>
      <path style="fill: none; stroke-opacity: 1; stroke-width: 0.02; stroke: #ff637e" d="M 522.015 737.05 L 522.257,737.303 L 521.16,738.917 L 521.16,739.541 L 522.617,740.407 L 523.106,740.283 L 524.084,738.293 L 524.456,738.546 L 527.875,731.713 L 527.875,741.65 L 528.606,741.65 L 524.456,755.816 L 525.063,756.31 L 522.988,756.687 L 521.644,757.677 L 521.644,758.796 L 527.993,758.796 L 528.116,757.801 L 527.993,757.053 L 528.729,756.929 L 532.272,745.879 L 535.809,756.929 L 536.546,757.053 L 536.422,757.924 L 536.664,758.796 L 542.895,758.796 L 542.895,757.677 L 541.551,756.687 L 539.476,756.31 L 539.965,755.816 L 535.939,741.65 L 536.664,741.65 L 536.664,731.713 L 539.965,738.67 L 540.331,738.293 L 541.309,740.283 L 541.911,740.407 L 543.384,739.541 L 543.384,738.917 L 542.282,737.303 L 542.529,737.05 L 537.283,726.489 L 534.218,726.489 L 533.245,725.505 L 530.928,725.505 L 530.068,726.489 L 527.256,726.489 L 522.015,737.05"/>
      <path style="fill: #cf0e30; fill-opacity: 1; stroke: none" fill-rule="evenodd" d="M 532.761 718.796 L 531.417,718.796 L 530.804,718.914 L 529.82,719.786 L 529.702,720.657 L 529.702,721.771 L 529.579,722.271 L 529.579,722.766 L 530.191,724.999 L 530.804,725.623 L 532.143,725.87 L 533.369,725.623 L 533.97,724.999 L 534.471,723.509 L 534.707,722.766 L 534.707,722.271 L 534.471,721.771 L 534.471,720.657 L 534.347,719.786 L 533.369,718.914 L 532.761,718.796z"/>
      <path style="fill: #cf0e30; fill-opacity: 1; stroke: none" fill-rule="evenodd" d="M 532.88 718.914 L 531.536,718.914 L 530.928,719.038 L 529.95,719.904 L 529.82,720.776 L 529.82,721.895 L 529.702,722.389 L 529.702,722.89 L 530.315,725.122 L 530.928,725.752 L 532.272,726 L 533.492,725.752 L 534.105,725.122 L 534.589,723.632 L 534.837,722.89 L 534.837,722.389 L 534.589,721.895 L 534.589,720.776 L 534.471,719.904 L 533.492,719.038 L 532.88,718.914z"/>
      <path style="fill: none; stroke-opacity: 1; stroke-width: 0.02; stroke: #ff637e" d="M 532.88 718.914 L 531.536,718.914 L 530.928,719.038 L 529.95,719.904 L 529.82,720.776 L 529.82,721.895 L 529.702,722.389 L 529.702,722.89 L 530.315,725.122 L 530.928,725.752 L 532.272,726 L 533.492,725.752 L 534.105,725.122 L 534.589,723.632 L 534.837,722.89 L 534.837,722.389 L 534.589,721.895 L 534.589,720.776 L 534.471,719.904 L 533.492,719.038 L 532.88,718.914"/>
    </g>
    <g>
      <path style="fill: #cf0e30; fill-opacity: 1; stroke: none" fill-rule="evenodd" d="M 523.182 691.5 L 523.667,691.617 L 522.82,693.223 L 522.82,693.842 L 523.913,694.455 L 524.398,694.333 L 525.362,692.364 L 525.731,692.609 L 527.186,689.163 L 529.127,685.834 L 529.729,688.795 L 527.303,702.089 L 529.606,702.089 L 528.998,709.222 L 528.034,710.46 L 526.578,710.95 L 525.245,711.558 L 525.245,712.668 L 527.905,712.668 L 529.852,711.809 L 529.606,712.668 L 530.576,712.668 L 531.062,711.687 L 531.062,710.086 L 531.915,707.008 L 532.762,702.089 L 534.212,702.089 L 535.066,707.008 L 535.919,709.963 L 535.919,711.687 L 536.404,712.668 L 537.369,712.668 L 537.006,711.809 L 539.069,712.668 L 541.735,712.668 L 541.735,711.558 L 540.402,710.95 L 538.941,710.46 L 537.976,709.222 L 537.246,702.089 L 539.672,702.089 L 537.246,688.795 L 537.854,685.834 L 539.794,689.163 L 541.133,692.732 L 541.49,692.364 L 542.46,694.333 L 542.945,694.455 L 544.15,693.842 L 544.15,693.223 L 543.308,691.617 L 543.798,691.617 L 541.607,687.563 L 539.187,682.516 L 538.456,681.401 L 537.491,681.044 L 534.943,680.67 L 534.341,679.31 L 531.915,679.31 L 531.792,680.67 L 529.478,681.044 L 528.519,681.401 L 527.905,682.271 L 525.245,687.814 L 523.182,691.5z"/>
      <path style="fill: #cf0e30; fill-opacity: 1; stroke: none" fill-rule="evenodd" d="M 523.305 691.617 L 523.79,691.745 L 522.942,693.346 L 522.942,693.965 L 524.035,694.578 L 524.515,694.455 L 525.485,692.487 L 525.848,692.732 L 527.303,689.28 L 529.244,685.962 L 529.852,688.918 L 527.42,702.212 L 529.729,702.212 L 529.127,709.35 L 528.151,710.577 L 526.701,711.068 L 525.362,711.687 L 525.362,712.796 L 528.034,712.796 L 529.974,711.932 L 529.729,712.796 L 530.705,712.796 L 531.184,711.809 L 531.184,710.209 L 532.032,707.131 L 532.88,702.212 L 534.341,702.212 L 535.188,707.131 L 536.03,710.086 L 536.03,711.809 L 536.515,712.796 L 537.491,712.796 L 537.123,711.932 L 539.187,712.796 L 541.846,712.796 L 541.846,711.687 L 540.519,711.068 L 539.069,710.577 L 538.094,709.35 L 537.369,702.212 L 539.794,702.212 L 537.369,688.918 L 537.976,685.962 L 539.917,689.28 L 541.244,692.86 L 541.607,692.487 L 542.583,694.455 L 543.068,694.578 L 544.283,693.965 L 544.283,693.346 L 543.43,691.745 L 543.915,691.745 L 541.735,687.68 L 539.304,682.644 L 538.584,681.529 L 537.608,681.161 L 535.066,680.799 L 534.458,679.443 L 532.032,679.443 L 531.915,680.799 L 529.606,681.161 L 528.636,681.529 L 528.034,682.393 L 525.362,687.925 L 523.305,691.617z"/>
      <path style="fill: none; stroke-opacity: 1; stroke-width: 0.02; stroke: #ff637e" d="M 523.305 691.617 L 523.79,691.745 L 522.942,693.346 L 522.942,693.965 L 524.035,694.578 L 524.515,694.455 L 525.485,692.487 L 525.848,692.732 L 527.303,689.28 L 529.244,685.962 L 529.852,688.918 L 527.42,702.212 L 529.729,702.212 L 529.127,709.35 L 528.151,710.577 L 526.701,711.068 L 525.362,711.687 L 525.362,712.796 L 528.034,712.796 L 529.974,711.932 L 529.729,712.796 L 530.705,712.796 L 531.184,711.809 L 531.184,710.209 L 532.032,707.131 L 532.88,702.212 L 534.341,702.212 L 535.188,707.131 L 536.03,710.086 L 536.03,711.809 L 536.515,712.796 L 537.491,712.796 L 537.123,711.932 L 539.187,712.796 L 541.846,712.796 L 541.846,711.687 L 540.519,711.068 L 539.069,710.577 L 538.094,709.35 L 537.369,702.212 L 539.794,702.212 L 537.369,688.918 L 537.976,685.962 L 539.917,689.28 L 541.244,692.86 L 541.607,692.487 L 542.583,694.455 L 543.068,694.578 L 544.283,693.965 L 544.283,693.346 L 543.43,691.745 L 543.915,691.745 L 541.735,687.68 L 539.304,682.644 L 538.584,681.529 L 537.608,681.161 L 535.066,680.799 L 534.458,679.443 L 532.032,679.443 L 531.915,680.799 L 529.606,681.161 L 528.636,681.529 L 528.034,682.393 L 525.362,687.925 L 523.305,691.617"/>
      <path style="fill: #cf0e30; fill-opacity: 1; stroke: none" fill-rule="evenodd" d="M 534.458 673.036 L 534.095,672.919 L 533.37,672.796 L 533.008,672.796 L 532.394,672.919 L 531.915,673.036 L 531.424,673.281 L 531.184,673.655 L 530.939,674.146 L 530.705,674.765 L 530.576,675.256 L 530.576,675.863 L 530.454,676.354 L 530.208,677.464 L 530.454,678.2 L 530.337,678.702 L 530.208,679.31 L 529.974,679.806 L 529.852,680.051 L 530.097,680.302 L 530.576,680.425 L 530.939,680.302 L 531.184,680.302 L 531.915,680.548 L 532.032,680.051 L 532.032,679.689 L 532.032,679.31 L 532.277,679.689 L 532.394,679.934 L 532.64,679.934 L 533.008,680.051 L 533.37,680.174 L 533.727,680.051 L 533.855,680.051 L 534.212,679.934 L 534.212,679.689 L 534.458,679.443 L 534.458,680.051 L 534.58,680.425 L 534.58,680.548 L 534.943,680.548 L 535.428,680.548 L 535.785,680.302 L 536.158,679.934 L 536.404,679.689 L 536.27,679.198 L 536.158,678.947 L 536.27,678.2 L 536.404,677.218 L 536.404,676.488 L 536.158,675.863 L 536.158,675.005 L 536.03,674.508 L 535.785,673.778 L 535.428,673.527 L 535.066,673.281 L 534.826,673.159 L 534.458,673.281 L 534.458,673.036z"/>
      <path style="fill: #cf0e30; fill-opacity: 1; stroke: none" fill-rule="evenodd" d="M 534.58 673.159 L 534.212,673.036 L 533.493,672.919 L 533.119,672.919 L 532.517,673.036 L 532.032,673.159 L 531.552,673.41 L 531.301,673.778 L 531.062,674.263 L 530.816,674.887 L 530.705,675.373 L 530.705,675.997 L 530.576,676.488 L 530.337,677.598 L 530.576,678.334 L 530.454,678.824 L 530.337,679.443 L 530.097,679.934 L 529.974,680.174 L 530.208,680.425 L 530.705,680.548 L 531.062,680.425 L 531.301,680.425 L 532.032,680.67 L 532.155,680.174 L 532.155,679.806 L 532.155,679.443 L 532.394,679.806 L 532.517,680.051 L 532.762,680.051 L 533.119,680.174 L 533.493,680.302 L 533.855,680.174 L 533.973,680.174 L 534.341,680.051 L 534.341,679.806 L 534.58,679.555 L 534.58,680.174 L 534.703,680.548 L 534.703,680.67 L 535.066,680.67 L 535.54,680.67 L 535.919,680.425 L 536.27,680.051 L 536.515,679.806 L 536.404,679.31 L 536.27,679.07 L 536.404,678.334 L 536.515,677.347 L 536.515,676.611 L 536.27,675.997 L 536.27,675.127 L 536.158,674.642 L 535.919,673.9 L 535.54,673.655 L 535.188,673.41 L 534.943,673.281 L 534.58,673.41 L 534.58,673.159z"/>
      <path style="fill: none; stroke-opacity: 1; stroke-width: 0.02; stroke: #ff637e" d="M 534.58 673.159 L 534.212,673.036 L 533.493,672.919 L 533.119,672.919 L 532.517,673.036 L 532.032,673.159 L 531.552,673.41 L 531.301,673.778 L 531.062,674.263 L 530.816,674.887 L 530.705,675.373 L 530.705,675.997 L 530.576,676.488 L 530.337,677.598 L 530.576,678.334 L 530.454,678.824 L 530.337,679.443 L 530.097,679.934 L 529.974,680.174 L 530.208,680.425 L 530.705,680.548 L 531.062,680.425 L 531.301,680.425 L 532.032,680.67 L 532.155,680.174 L 532.155,679.806 L 532.155,679.443 L 532.394,679.806 L 532.517,680.051 L 532.762,680.051 L 533.119,680.174 L 533.493,680.302 L 533.855,680.174 L 533.973,680.174 L 534.341,680.051 L 534.341,679.806 L 534.58,679.555 L 534.58,680.174 L 534.703,680.548 L 534.703,680.67 L 535.066,680.67 L 535.54,680.67 L 535.919,680.425 L 536.27,680.051 L 536.515,679.806 L 536.404,679.31 L 536.27,679.07 L 536.404,678.334 L 536.515,677.347 L 536.515,676.611 L 536.27,675.997 L 536.27,675.127 L 536.158,674.642 L 535.919,673.9 L 535.54,673.655 L 535.188,673.41 L 534.943,673.281 L 534.58,673.41 L 534.58,673.159"/>
    </g>
    <g>
      <path style="fill: #00b4ff; fill-opacity: 1; stroke: none" fill-rule="evenodd" d="M 624.834 528.751 L 625.324,528.868 L 624.466,530.474 L 624.466,531.093 L 625.575,531.706 L 626.066,531.584 L 627.048,529.615 L 627.421,529.86 L 628.899,526.414 L 630.873,523.085 L 631.481,526.046 L 629.022,539.34 L 631.364,539.34 L 630.739,546.473 L 629.763,547.711 L 628.274,548.201 L 626.93,548.809 L 626.93,549.919 L 629.641,549.919 L 631.609,549.06 L 631.364,549.919 L 632.345,549.919 L 632.836,548.938 L 632.836,547.337 L 633.706,544.259 L 634.57,539.34 L 636.042,539.34 L 636.907,544.259 L 637.777,547.214 L 637.777,548.938 L 638.267,549.919 L 639.243,549.919 L 638.881,549.06 L 640.978,549.919 L 643.688,549.919 L 643.688,548.809 L 642.333,548.201 L 640.849,547.711 L 639.868,546.473 L 639.126,539.34 L 641.585,539.34 L 639.126,526.046 L 639.74,523.085 L 641.714,526.414 L 643.074,529.983 L 643.442,529.615 L 644.424,531.584 L 644.92,531.706 L 646.147,531.093 L 646.147,530.474 L 645.294,528.868 L 645.784,528.868 L 643.565,524.814 L 641.095,519.767 L 640.359,518.652 L 639.377,518.295 L 636.79,517.921 L 636.171,516.561 L 633.706,516.561 L 633.583,517.921 L 631.235,518.295 L 630.254,518.652 L 629.641,519.522 L 626.93,525.065 L 624.834,528.751z"/>
      <path style="fill: #00b4ff; fill-opacity: 1; stroke: none" fill-rule="evenodd" d="M 624.956 528.868 L 625.447,528.996 L 624.588,530.597 L 624.588,531.215 L 625.692,531.829 L 626.183,531.706 L 627.176,529.738 L 627.549,529.983 L 629.022,526.531 L 630.99,523.213 L 631.609,526.169 L 629.144,539.463 L 631.481,539.463 L 630.873,546.601 L 629.886,547.828 L 628.403,548.319 L 627.048,548.938 L 627.048,550.047 L 629.763,550.047 L 631.737,549.183 L 631.481,550.047 L 632.473,550.047 L 632.97,549.06 L 632.97,547.46 L 633.828,544.382 L 634.687,539.463 L 636.171,539.463 L 637.035,544.382 L 637.888,547.337 L 637.888,549.06 L 638.379,550.047 L 639.377,550.047 L 638.998,549.183 L 641.095,550.047 L 643.81,550.047 L 643.81,548.938 L 642.45,548.319 L 640.978,547.828 L 639.985,546.601 L 639.243,539.463 L 641.714,539.463 L 639.243,526.169 L 639.868,523.213 L 641.842,526.531 L 643.186,530.111 L 643.565,529.738 L 644.546,531.706 L 645.037,531.829 L 646.275,531.215 L 646.275,530.597 L 645.411,528.996 L 645.902,528.996 L 643.688,524.931 L 641.228,519.895 L 640.487,518.78 L 639.494,518.412 L 636.907,518.049 L 636.288,516.694 L 633.828,516.694 L 633.706,518.049 L 631.364,518.412 L 630.382,518.78 L 629.763,519.644 L 627.048,525.176 L 624.956,528.868z"/>
      <path style="fill: none; stroke-opacity: 1; stroke-width: 0.02; stroke: #aae6ff" d="M 624.956 528.868 L 625.447,528.996 L 624.588,530.597 L 624.588,531.215 L 625.692,531.829 L 626.183,531.706 L 627.176,529.738 L 627.549,529.983 L 629.022,526.531 L 630.99,523.213 L 631.609,526.169 L 629.144,539.463 L 631.481,539.463 L 630.873,546.601 L 629.886,547.828 L 628.403,548.319 L 627.048,548.938 L 627.048,550.047 L 629.763,550.047 L 631.737,549.183 L 631.481,550.047 L 632.473,550.047 L 632.97,549.06 L 632.97,547.46 L 633.828,544.382 L 634.687,539.463 L 636.171,539.463 L 637.035,544.382 L 637.888,547.337 L 637.888,549.06 L 638.379,550.047 L 639.377,550.047 L 638.998,549.183 L 641.095,550.047 L 643.81,550.047 L 643.81,548.938 L 642.45,548.319 L 640.978,547.828 L 639.985,546.601 L 639.243,539.463 L 641.714,539.463 L 639.243,526.169 L 639.868,523.213 L 641.842,526.531 L 643.186,530.111 L 643.565,529.738 L 644.546,531.706 L 645.037,531.829 L 646.275,531.215 L 646.275,530.597 L 645.411,528.996 L 645.902,528.996 L 643.688,524.931 L 641.228,519.895 L 640.487,518.78 L 639.494,518.412 L 636.907,518.049 L 636.288,516.694 L 633.828,516.694 L 633.706,518.049 L 631.364,518.412 L 630.382,518.78 L 629.763,519.644 L 627.048,525.176 L 624.956,528.868"/>
      <path style="fill: #00b4ff; fill-opacity: 1; stroke: none" fill-rule="evenodd" d="M 636.288 510.287 L 635.925,510.17 L 635.184,510.047 L 634.816,510.047 L 634.191,510.17 L 633.706,510.287 L 633.21,510.532 L 632.97,510.906 L 632.724,511.397 L 632.473,512.016 L 632.345,512.506 L 632.345,513.114 L 632.228,513.605 L 631.983,514.715 L 632.228,515.451 L 632.1,515.953 L 631.983,516.561 L 631.737,517.057 L 631.609,517.302 L 631.854,517.553 L 632.345,517.676 L 632.724,517.553 L 632.97,517.553 L 633.706,517.799 L 633.828,517.302 L 633.828,516.94 L 633.828,516.561 L 634.079,516.94 L 634.191,517.185 L 634.442,517.185 L 634.816,517.302 L 635.184,517.425 L 635.546,517.302 L 635.68,517.302 L 636.042,517.185 L 636.042,516.94 L 636.288,516.694 L 636.288,517.302 L 636.422,517.676 L 636.422,517.799 L 636.79,517.799 L 637.28,517.799 L 637.643,517.553 L 638.022,517.185 L 638.267,516.94 L 638.145,516.449 L 638.022,516.198 L 638.145,515.451 L 638.267,514.469 L 638.267,513.739 L 638.022,513.114 L 638.022,512.256 L 637.888,511.759 L 637.643,511.029 L 637.28,510.778 L 636.907,510.532 L 636.661,510.41 L 636.288,510.532 L 636.288,510.287z"/>
      <path style="fill: #00b4ff; fill-opacity: 1; stroke: none" fill-rule="evenodd" d="M 636.422 510.41 L 636.042,510.287 L 635.306,510.17 L 634.938,510.17 L 634.325,510.287 L 633.828,510.41 L 633.338,510.661 L 633.081,511.029 L 632.836,511.514 L 632.591,512.138 L 632.473,512.624 L 632.473,513.248 L 632.345,513.739 L 632.1,514.849 L 632.345,515.585 L 632.228,516.075 L 632.1,516.694 L 631.854,517.185 L 631.737,517.425 L 631.983,517.676 L 632.473,517.799 L 632.836,517.676 L 633.081,517.676 L 633.828,517.921 L 633.946,517.425 L 633.946,517.057 L 633.946,516.694 L 634.191,517.057 L 634.325,517.302 L 634.57,517.302 L 634.938,517.425 L 635.306,517.553 L 635.68,517.425 L 635.797,517.425 L 636.171,517.302 L 636.171,517.057 L 636.422,516.806 L 636.422,517.425 L 636.533,517.799 L 636.533,517.921 L 636.907,517.921 L 637.397,517.921 L 637.777,517.676 L 638.145,517.302 L 638.379,517.057 L 638.267,516.561 L 638.145,516.321 L 638.267,515.585 L 638.379,514.598 L 638.379,513.862 L 638.145,513.248 L 638.145,512.378 L 638.022,511.893 L 637.777,511.151 L 637.397,510.906 L 637.035,510.661 L 636.79,510.532 L 636.422,510.661 L 636.422,510.41z"/>
      <path style="fill: none; stroke-opacity: 1; stroke-width: 0.02; stroke: #aae6ff" d="M 636.422 510.41 L 636.042,510.287 L 635.306,510.17 L 634.938,510.17 L 634.325,510.287 L 633.828,510.41 L 633.338,510.661 L 633.081,511.029 L 632.836,511.514 L 632.591,512.138 L 632.473,512.624 L 632.473,513.248 L 632.345,513.739 L 632.1,514.849 L 632.345,515.585 L 632.228,516.075 L 632.1,516.694 L 631.854,517.185 L 631.737,517.425 L 631.983,517.676 L 632.473,517.799 L 632.836,517.676 L 633.081,517.676 L 633.828,517.921 L 633.946,517.425 L 633.946,517.057 L 633.946,516.694 L 634.191,517.057 L 634.325,517.302 L 634.57,517.302 L 634.938,517.425 L 635.306,517.553 L 635.68,517.425 L 635.797,517.425 L 636.171,517.302 L 636.171,517.057 L 636.422,516.806 L 636.422,517.425 L 636.533,517.799 L 636.533,517.921 L 636.907,517.921 L 637.397,517.921 L 637.777,517.676 L 638.145,517.302 L 638.379,517.057 L 638.267,516.561 L 638.145,516.321 L 638.267,515.585 L 638.379,514.598 L 638.379,513.862 L 638.145,513.248 L 638.145,512.378 L 638.022,511.893 L 637.777,511.151 L 637.397,510.906 L 637.035,510.661 L 636.79,510.532 L 636.422,510.661 L 636.422,510.41"/>
    </g>
    <g>
      <path style="fill: #00b4ff; fill-opacity: 1; stroke: none" fill-rule="evenodd" d="M 597.909 528.183 L 598.157,528.43 L 597.06,530.044 L 597.06,530.663 L 598.517,531.535 L 599.012,531.411 L 599.99,529.42 L 600.356,529.668 L 603.775,522.841 L 603.775,532.777 L 604.506,532.777 L 600.356,546.937 L 600.969,547.438 L 598.888,547.809 L 597.544,548.804 L 597.544,549.918 L 603.898,549.918 L 604.017,548.928 L 603.898,548.18 L 604.63,548.057 L 608.172,537.001 L 611.715,548.057 L 612.446,548.18 L 612.322,549.052 L 612.57,549.918 L 618.789,549.918 L 618.789,548.804 L 617.451,547.809 L 615.37,547.438 L 615.865,546.937 L 611.833,532.777 L 612.57,532.777 L 612.57,522.841 L 615.865,529.797 L 616.231,529.42 L 617.204,531.411 L 617.817,531.535 L 619.284,530.663 L 619.284,530.044 L 618.182,528.43 L 618.43,528.183 L 613.177,517.622 L 610.124,517.622 L 609.145,516.627 L 606.828,516.627 L 605.974,517.622 L 603.167,517.622 L 597.909,528.183z"/>
      <path style="fill: #00b4ff; fill-opacity: 1; stroke: none" fill-rule="evenodd" d="M 598.033 528.301 L 598.281,528.554 L 597.178,530.168 L 597.178,530.792 L 598.646,531.658 L 599.135,531.535 L 600.108,529.544 L 600.474,529.797 L 603.898,522.964 L 603.898,532.901 L 604.63,532.901 L 600.474,547.067 L 601.087,547.562 L 599.012,547.938 L 597.668,548.928 L 597.668,550.047 L 604.017,550.047 L 604.14,549.052 L 604.017,548.304 L 604.753,548.18 L 608.296,537.13 L 611.833,548.18 L 612.57,548.304 L 612.446,549.176 L 612.688,550.047 L 618.919,550.047 L 618.919,548.928 L 617.575,547.938 L 615.5,547.562 L 615.983,547.067 L 611.957,532.901 L 612.688,532.901 L 612.688,522.964 L 615.983,529.921 L 616.349,529.544 L 617.333,531.535 L 617.94,531.658 L 619.402,530.792 L 619.402,530.168 L 618.306,528.554 L 618.548,528.301 L 613.301,517.74 L 610.247,517.74 L 609.269,516.756 L 606.946,516.756 L 606.097,517.74 L 603.28,517.74 L 598.033,528.301z"/>
      <path style="fill: none; stroke-opacity: 1; stroke-width: 0.02; stroke: #aae6ff" d="M 598.033 528.301 L 598.281,528.554 L 597.178,530.168 L 597.178,530.792 L 598.646,531.658 L 599.135,531.535 L 600.108,529.544 L 600.474,529.797 L 603.898,522.964 L 603.898,532.901 L 604.63,532.901 L 600.474,547.067 L 601.087,547.562 L 599.012,547.938 L 597.668,548.928 L 597.668,550.047 L 604.017,550.047 L 604.14,549.052 L 604.017,548.304 L 604.753,548.18 L 608.296,537.13 L 611.833,548.18 L 612.57,548.304 L 612.446,549.176 L 612.688,550.047 L 618.919,550.047 L 618.919,548.928 L 617.575,547.938 L 615.5,547.562 L 615.983,547.067 L 611.957,532.901 L 612.688,532.901 L 612.688,522.964 L 615.983,529.921 L 616.349,529.544 L 617.333,531.535 L 617.94,531.658 L 619.402,530.792 L 619.402,530.168 L 618.306,528.554 L 618.548,528.301 L 613.301,517.74 L 610.247,517.74 L 609.269,516.756 L 606.946,516.756 L 606.097,517.74 L 603.28,517.74 L 598.033,528.301"/>
      <path style="fill: #00b4ff; fill-opacity: 1; stroke: none" fill-rule="evenodd" d="M 608.78 510.047 L 607.441,510.047 L 606.828,510.165 L 605.85,511.037 L 605.726,511.909 L 605.726,513.022 L 605.608,513.523 L 605.608,514.017 L 606.215,516.25 L 606.828,516.874 L 608.172,517.122 L 609.393,516.874 L 610,516.25 L 610.489,514.76 L 610.737,514.017 L 610.737,513.523 L 610.489,513.022 L 610.489,511.909 L 610.371,511.037 L 609.393,510.165 L 608.78,510.047z"/>
      <path style="fill: #00b4ff; fill-opacity: 1; stroke: none" fill-rule="evenodd" d="M 608.903 510.165 L 607.559,510.165 L 606.946,510.289 L 605.974,511.155 L 605.85,512.027 L 605.85,513.146 L 605.726,513.641 L 605.726,514.141 L 606.339,516.374 L 606.946,517.004 L 608.296,517.251 L 609.516,517.004 L 610.124,516.374 L 610.613,514.883 L 610.86,514.141 L 610.86,513.641 L 610.613,513.146 L 610.613,512.027 L 610.489,511.155 L 609.516,510.289 L 608.903,510.165z"/>
      <path style="fill: none; stroke-opacity: 1; stroke-width: 0.02; stroke: #aae6ff" d="M 608.903 510.165 L 607.559,510.165 L 606.946,510.289 L 605.974,511.155 L 605.85,512.027 L 605.85,513.146 L 605.726,513.641 L 605.726,514.141 L 606.339,516.374 L 606.946,517.004 L 608.296,517.251 L 609.516,517.004 L 610.124,516.374 L 610.613,514.883 L 610.86,514.141 L 610.86,513.641 L 610.613,513.146 L 610.613,512.027 L 610.489,511.155 L 609.516,510.289 L 608.903,510.165"/>
    </g>
    <rect style="fill: #ffffff; fill-opacity: 1; stroke-opacity: 1; stroke-width: 2; stroke: #000000" x="336.655" y="515.562" width="68.7496" height="33.9999" rx="0" ry="0"/>
    <text font-size="12.7998" style="fill: #000000; fill-opacity: 1; stroke: none;text-anchor:middle;font-family:sans-serif;font-style:normal;font-weight:normal" x="371.03" y="537.012">
      <tspan x="371.03" y="537.012">readers</tspan>
    </text>
    <rect style="fill: #ffffff; fill-opacity: 1; stroke-opacity: 1; stroke-width: 2; stroke: #000000" x="340.655" y="673.811" width="65.9996" height="34.9999" rx="0" ry="0"/>
    <text font-size="12.7998" style="fill: #000000; fill-opacity: 1; stroke: none;text-anchor:middle;font-family:sans-serif;font-style:normal;font-weight:normal" x="373.655" y="695.761">
      <tspan x="373.655" y="695.761">owners</tspan>
    </text>
    <text font-size="12.7998" style="fill: #000000; fill-opacity: 1; stroke: none;text-anchor:start;font-family:sans-serif;font-style:normal;font-weight:normal" x="408.155" y="509.312">
      <tspan x="408.155" y="509.312">GRANT SELECT</tspan>
    </text>
    <text font-size="12.7998" style="fill: #000000; fill-opacity: 1; stroke: none;text-anchor:start;font-family:sans-serif;font-style:normal;font-weight:normal" x="406.655" y="665.561">
      <tspan x="406.655" y="665.561">GRANT CREATE</tspan>
    </text>
    <text font-size="12.7998" style="fill: #000000; fill-opacity: 1; stroke: none;text-anchor:start;font-family:sans-serif;font-style:normal;font-weight:normal" x="559.154" y="696.561">
      <tspan x="559.154" y="696.561">ADP GRANT SELECT ON readers</tspan>
    </text>
    <text font-size="12.7998" style="fill: #000000; fill-opacity: 1; stroke: none;text-anchor:start;font-family:sans-serif;font-style:normal;font-weight:normal" x="557.804" y="745.536">
      <tspan x="557.804" y="745.536">ADP GRANT SELECT ON readers</tspan>
    </text>
    <g>
      <line style="fill: none; stroke-opacity: 1; stroke-width: 2; stroke: #000000" x1="547.904" y1="532.062" x2="416.143" y2="532.434"/>
      <polygon style="fill: #000000; fill-opacity: 1; stroke-opacity: 1; stroke-width: 2; stroke: #000000" fill-rule="evenodd" points="408.643,532.455 418.629,527.427 416.143,532.434 418.657,537.427 "/>
    </g>
    <g>
      <line style="fill: none; stroke-opacity: 1; stroke-width: 2; stroke: #000000" x1="511.404" y1="691.186" x2="417.375" y2="691.271"/>
      <polygon style="fill: #000000; fill-opacity: 1; stroke-opacity: 1; stroke-width: 2; stroke: #000000" fill-rule="evenodd" points="409.875,691.278 419.87,686.269 417.375,691.271 419.879,696.269 "/>
    </g>
    <g>
      <line style="fill: none; stroke-opacity: 1; stroke-width: 2; stroke: #000000" x1="515.654" y1="743.685" x2="416.782" y2="707.217"/>
      <polygon style="fill: #000000; fill-opacity: 1; stroke-opacity: 1; stroke-width: 2; stroke: #000000" fill-rule="evenodd" points="409.745,704.622 420.857,703.391 416.782,707.217 417.397,712.774 "/>
    </g>
    <g>
      <line style="fill: none; stroke-opacity: 1; stroke-width: 2; stroke: #000000" x1="401.691" y1="550.535" x2="598.255" y2="665.762"/>
      <polygon style="fill: #000000; fill-opacity: 1; stroke-opacity: 1; stroke-width: 2; stroke: #000000" fill-rule="evenodd" points="604.725,669.555 593.569,668.811 598.255,665.762 598.626,660.184 "/>
    </g>
  </g>
</svg>
